<?xml version="1.0" encoding="UTF-8"?>
<svg id="Layer_1" data-name="Layer 1" xmlns="http://www.w3.org/2000/svg" viewBox="0 0 337.9443 29.3778">
  <defs>
    <style>
      .cls-1 {
        fill: #cf6944;
      }

      .cls-2 {
        fill: #9298a0;
      }
    </style>
  </defs>
  <polygon class="cls-2" points="19.0772 14.6077 .0005 23.5258 .0005 5.6896 19.0772 14.6077"/>
  <g>
    <path class="cls-2" d="M89.3812,24.5441c-6.0742,0-9.4082-4.3672-9.4082-9.5635s3.334-9.5635,9.4082-9.5635c4.627,0,7.1602,2.4805,8.2979,5.7637h-2.4561c-1.0078-2.3262-2.7139-3.6963-5.8418-3.6963-4.6006,0-6.9531,3.4893-6.9531,7.4961s2.3271,7.4961,6.9531,7.4961c3.1543,0,5.1182-1.5771,5.8682-3.7217h2.4551c-.7236,3.0234-3.6182,5.7891-8.3232,5.7891Z"/>
    <path class="cls-2" d="M112.5678,18.1603h-10.4941c.1807,2.792,1.8867,4.4199,4.2646,4.4199,1.7832,0,3.2832-.6982,3.748-2.3525h2.2744c-.749,2.8438-2.998,4.291-5.9707,4.291-3.9551,0-6.5654-2.8691-6.5654-7.0566,0-4.0322,2.7402-6.9277,6.5137-6.9277,4.7041,0,6.1777,3.7744,6.2295,7.2129v.4131ZM110.2152,16.2989c-.2061-2.3262-1.499-3.8516-3.877-3.8516-2.4033,0-3.9287,1.5518-4.2393,3.8516h8.1162Z"/>
    <path class="cls-2" d="M121.4594,10.7931v2.2236c-.1025,0-.5166.0254-.8525.0771-1.5508.2324-3.1279.9307-3.1279,4.8076v6.3066h-2.3262v-13.3633h2.3262v2.6885c.6719-1.9639,1.9648-2.7402,3.9805-2.7402Z"/>
    <path class="cls-2" d="M135.4955,18.1603h-10.4941c.1807,2.792,1.8867,4.4199,4.2646,4.4199,1.7832,0,3.2832-.6982,3.748-2.3525h2.2744c-.749,2.8438-2.998,4.291-5.9707,4.291-3.9551,0-6.5654-2.8691-6.5654-7.0566,0-4.0322,2.7402-6.9277,6.5137-6.9277,4.7041,0,6.1777,3.7744,6.2295,7.2129v.4131ZM133.143,16.2989c-.2061-2.3262-1.499-3.8516-3.877-3.8516-2.4033,0-3.9287,1.5518-4.2393,3.8516h8.1162Z"/>
    <path class="cls-2" d="M151.1342,17.4874c0,4.1367-2.3262,7.0312-6.1006,7.0312-2.4297,0-4.1094-1.6025-4.6006-2.9727h-.0264v2.6621h-2.3262V5.753h2.3262v7.8066h.0264c.4912-1.3965,2.1709-3.0254,4.6006-3.0254,3.7744,0,6.1006,2.8184,6.1006,6.9531ZM148.808,17.4874c0-2.8945-1.5-4.9883-4.2393-4.9883-2.8955,0-4.2393,2.3789-4.2393,4.9883,0,2.6367,1.3438,5.041,4.2393,5.041,2.8174,0,4.2393-2.1455,4.2393-5.041Z"/>
    <path class="cls-2" d="M159.9223,10.7931v2.2236c-.1025,0-.5166.0254-.8525.0771-1.5508.2324-3.1279.9307-3.1279,4.8076v6.3066h-2.3262v-13.3633h2.3262v2.6885c.6719-1.9639,1.9648-2.7402,3.9805-2.7402Z"/>
    <path class="cls-2" d="M169.9008,22.2706v-.5176h-.0264c-.3096,1.0332-1.4209,2.7656-4.3936,2.7656-3.2051,0-4.6787-2.042-4.6787-3.9551,0-3.7734,4.7559-3.9023,6.7725-4.2646,1.7568-.3096,2.3262-.8018,2.3262-1.9131s-1.0596-1.9121-2.9727-1.9121c-1.6289,0-2.8438.9561-3.1533,2.4043h-2.3262c.2842-1.9395,1.9121-4.3691,5.4023-4.3691,4.9111,0,5.376,3.1797,5.376,5.2471v5.7393c0,1.0078.1035,2.0674.207,2.7129h-2.4814c-.0518-.6455-.0518-1.1885-.0518-1.9375ZM169.9525,18.005v-1.8613h-.0264c-.2578.8789-.8271,1.6543-3.7217,2.1719-1.9385.3359-3.1016.9043-3.1016,2.248,0,1.2676,1.1631,2.0684,2.791,2.0684,2.042,0,4.0586-1.3184,4.0586-4.627Z"/>
    <path class="cls-2" d="M179.9037,12.4991c-1.2666,0-2.5332.7246-2.5332,1.8613,0,1.0332,1.0342,1.6289,2.1973,1.9121l1.7578.4395c2.0156.4922,4.0586,1.4482,4.0586,3.6709,0,2.8428-2.9727,4.1357-5.2998,4.1357-2.248,0-5.1953-1.0332-5.4277-4.3418h2.3262c.3105,1.7051,1.3701,2.377,3.1797,2.377,1.3184,0,2.8945-.4648,2.8945-2.0156,0-1.1367-1.1113-1.5254-2.3779-1.8359l-1.8613-.4648c-1.9902-.4902-3.7734-1.7051-3.7734-3.7734,0-2.5078,2.585-3.9297,4.9375-3.9297,2.6104,0,4.9111,1.3965,5.1689,4.3438h-2.2998c-.1553-1.7324-1.6025-2.3789-2.9473-2.3789Z"/>
    <path class="cls-2" d="M204.7445,18.8058h-7.7031l-2.042,5.4023h-2.5332l6.876-18.4551h3.0762l6.876,18.4551h-2.5332l-2.0166-5.4023ZM197.766,16.7902h6.2549l-3.1016-8.8398h-.0781l-3.0752,8.8398Z"/>
    <path class="cls-2" d="M211.4144,10.8448h2.3262v2.2754c.2588-1.2148,1.5771-2.5859,3.3867-2.5859,2.1709,0,3.4111.8281,4.0322,2.6631.8271-1.8096,2.042-2.6631,3.8252-2.6631,3.2568,0,4.5234,2.3008,4.5234,5.0156v8.6582h-2.3262v-8.4258c0-2.3525-.9561-3.2832-2.5078-3.2832-1.7051,0-3.0752,1.6543-3.0752,5.1445v6.5645h-2.3262v-8.4258c0-2.3525-.6465-3.2832-2.4561-3.2832-2.3779,0-3.0762,2.3525-3.0762,5.1445v6.5645h-2.3262v-13.3633Z"/>
    <path class="cls-2" d="M245.768,17.4874c0,4.1367-2.3262,7.0312-6.1006,7.0312-2.4297,0-4.1094-1.6025-4.6006-2.9727h-.0264v2.6621h-2.3262V5.753h2.3262v7.8066h.0264c.4912-1.3965,2.1709-3.0254,4.6006-3.0254,3.7744,0,6.1006,2.8184,6.1006,6.9531ZM243.4418,17.4874c0-2.8945-1.5-4.9883-4.2393-4.9883-2.8955,0-4.2393,2.3789-4.2393,4.9883,0,2.6367,1.3438,5.041,4.2393,5.041,2.8174,0,4.2393-2.1455,4.2393-5.041Z"/>
    <path class="cls-2" d="M256.6762,22.2706v-.5176h-.0264c-.3096,1.0332-1.4209,2.7656-4.3936,2.7656-3.2051,0-4.6787-2.042-4.6787-3.9551,0-3.7734,4.7559-3.9023,6.7725-4.2646,1.7568-.3096,2.3262-.8018,2.3262-1.9131s-1.0596-1.9121-2.9727-1.9121c-1.6289,0-2.8438.9561-3.1533,2.4043h-2.3262c.2842-1.9395,1.9121-4.3691,5.4023-4.3691,4.9111,0,5.376,3.1797,5.376,5.2471v5.7393c0,1.0078.1035,2.0674.207,2.7129h-2.4814c-.0518-.6455-.0518-1.1885-.0518-1.9375ZM256.7279,18.005v-1.8613h-.0264c-.2578.8789-.8271,1.6543-3.7217,2.1719-1.9385.3359-3.1016.9043-3.1016,2.248,0,1.2676,1.1631,2.0684,2.791,2.0684,2.042,0,4.0586-1.3184,4.0586-4.627Z"/>
    <path class="cls-2" d="M266.6791,12.4991c-1.2666,0-2.5332.7246-2.5332,1.8613,0,1.0332,1.0342,1.6289,2.1973,1.9121l1.7578.4395c2.0156.4922,4.0586,1.4482,4.0586,3.6709,0,2.8428-2.9727,4.1357-5.2998,4.1357-2.248,0-5.1953-1.0332-5.4277-4.3418h2.3262c.3105,1.7051,1.3701,2.377,3.1797,2.377,1.3184,0,2.8945-.4648,2.8945-2.0156,0-1.1367-1.1113-1.5254-2.3779-1.8359l-1.8613-.4648c-1.9902-.4902-3.7734-1.7051-3.7734-3.7734,0-2.5078,2.585-3.9297,4.9375-3.9297,2.6104,0,4.9111,1.3965,5.1689,4.3438h-2.2998c-.1553-1.7324-1.6025-2.3789-2.9473-2.3789Z"/>
    <path class="cls-2" d="M279.0609,12.4991c-1.2666,0-2.5332.7246-2.5332,1.8613,0,1.0332,1.0342,1.6289,2.1973,1.9121l1.7578.4395c2.0166.4922,4.0586,1.4482,4.0586,3.6709,0,2.8428-2.9727,4.1357-5.2998,4.1357-2.248,0-5.1953-1.0332-5.4277-4.3418h2.3262c.3105,1.7051,1.3701,2.377,3.1797,2.377,1.3184,0,2.8945-.4648,2.8945-2.0156,0-1.1367-1.1113-1.5254-2.3779-1.8359l-1.8613-.4648c-1.9902-.4902-3.7734-1.7051-3.7734-3.7734,0-2.5078,2.585-3.9297,4.9375-3.9297,2.6104,0,4.9111,1.3965,5.1689,4.3438h-2.2998c-.1553-1.7324-1.6025-2.3789-2.9473-2.3789Z"/>
    <path class="cls-2" d="M295.4496,22.2706v-.5176h-.0264c-.3096,1.0332-1.4209,2.7656-4.3936,2.7656-3.2051,0-4.6787-2.042-4.6787-3.9551,0-3.7734,4.7559-3.9023,6.7725-4.2646,1.7568-.3096,2.3262-.8018,2.3262-1.9131s-1.0596-1.9121-2.9727-1.9121c-1.6289,0-2.8438.9561-3.1533,2.4043h-2.3262c.2842-1.9395,1.9121-4.3691,5.4023-4.3691,4.9111,0,5.376,3.1797,5.376,5.2471v5.7393c0,1.0078.1035,2.0674.207,2.7129h-2.4814c-.0518-.6455-.0518-1.1885-.0518-1.9375ZM295.5014,18.005v-1.8613h-.0264c-.2578.8789-.8271,1.6543-3.7217,2.1719-1.9385.3359-3.1016.9043-3.1016,2.248,0,1.2676,1.1631,2.0684,2.791,2.0684,2.042,0,4.0586-1.3184,4.0586-4.627Z"/>
    <path class="cls-2" d="M313.2592,5.753v18.4551h-2.3262v-2.6621h-.0264c-.4912,1.3701-2.1709,2.9727-4.6006,2.9727-3.7744,0-6.1006-2.8945-6.1006-7.0312s2.3262-6.9531,6.1006-6.9531c2.4297,0,4.1094,1.6289,4.6006,3.0254h.0264v-7.8066h2.3262ZM311.0101,17.4874c0-2.6094-1.3438-4.9883-4.2393-4.9883-2.7402,0-4.2393,2.0938-4.2393,4.9883s1.4219,5.041,4.2393,5.041c2.8955,0,4.2393-2.4043,4.2393-5.041Z"/>
    <path class="cls-2" d="M315.7406,17.5402c0-3.9297,2.6367-7.0059,6.6943-7.0059s6.6953,3.0762,6.6953,7.0059-2.6367,6.9785-6.6953,6.9785-6.6943-3.0498-6.6943-6.9785ZM326.8041,17.5402c0-2.7656-1.7578-5.041-4.3691-5.041s-4.3682,2.2754-4.3682,5.041c0,2.7402,1.7578,5.0137,4.3682,5.0137s4.3691-2.2734,4.3691-5.0137Z"/>
    <path class="cls-2" d="M337.9184,10.7931v2.2236c-.1025,0-.5166.0254-.8525.0771-1.5508.2324-3.1279.9307-3.1279,4.8076v6.3066h-2.3262v-13.3633h2.3262v2.6885c.6719-1.9639,1.9648-2.7402,3.9805-2.7402Z"/>
  </g>
  <circle class="cls-1" cx="55.1676" cy="14.6077" r="14.6077"/>
</svg>