<?xml version="1.0" encoding="UTF-8"?>
<svg id="Layer_1" data-name="Layer 1" xmlns="http://www.w3.org/2000/svg" width="92" height="18" viewBox="0 0 149.0127 29.2154">
  <defs>
    <style>
      .cls-1 {
        fill: #9298a0;
      }
    </style>
  </defs>
  <path class="cls-1" d="M12.459,11.3107c0,3.2051-2.7402,5.5576-6.4111,5.5576h-3.5928v7.3408H0V5.754h6.2031c3.6709,0,6.2559,2.3516,6.2559,5.5566ZM10.0029,11.3107c0-2.1709-1.3701-3.4893-4.0586-3.4893h-3.4893v6.9795h3.335c2.6875,0,4.2129-1.3184,4.2129-3.4902Z"/>
  <path class="cls-1" d="M20.5225,10.7941v2.2227c-.1025,0-.5166.0264-.8525.0781-1.5508.2324-3.1279.9307-3.1279,4.8076v6.3066h-2.3262v-13.3633h2.3262v2.6885c.6719-1.9648,1.9648-2.7402,3.9805-2.7402Z"/>
  <path class="cls-1" d="M21.8154,17.5402c0-3.9287,2.6367-7.0049,6.6943-7.0049s6.6953,3.0762,6.6953,7.0049-2.6367,6.9795-6.6953,6.9795-6.6943-3.0498-6.6943-6.9795ZM32.8789,17.5402c0-2.7656-1.7578-5.04-4.3691-5.04s-4.3682,2.2744-4.3682,5.04c0,2.7402,1.7578,5.0146,4.3682,5.0146s4.3691-2.2744,4.3691-5.0146Z"/>
  <path class="cls-1" d="M38.4629,10.8458c1.2666,3.6699,2.5068,7.3408,3.7734,11.0117h.0264l3.7217-11.0117h2.5332c-1.6797,4.4463-3.334,8.918-5.0146,13.3633h-2.5586c-1.6807-4.4453-3.335-8.917-5.0146-13.3633h2.5332Z"/>
  <path class="cls-1" d="M50.3789,10.8458h2.3262v13.3633h-2.3262v-13.3633ZM50.4307,8.338v-2.584h2.4814v2.584h-2.4814Z"/>
  <path class="cls-1" d="M68.4473,5.754v18.4551h-2.3262v-2.6621h-.0264c-.4912,1.3701-2.1709,2.9727-4.6006,2.9727-3.7744,0-6.1006-2.8955-6.1006-7.0312s2.3262-6.9531,6.1006-6.9531c2.4297,0,4.1094,1.6289,4.6006,3.0244h.0264v-7.8057h2.3262ZM66.1982,17.4884c0-2.6104-1.3438-4.9883-4.2393-4.9883-2.7402,0-4.2393,2.0938-4.2393,4.9883s1.4219,5.041,4.2393,5.041c2.8955,0,4.2393-2.4043,4.2393-5.041Z"/>
  <path class="cls-1" d="M83.6719,18.1613h-10.4941c.1807,2.791,1.8867,4.4199,4.2646,4.4199,1.7832,0,3.2832-.6982,3.748-2.3525h2.2744c-.749,2.8438-2.998,4.291-5.9707,4.291-3.9551,0-6.5654-2.8691-6.5654-7.0566,0-4.0322,2.7402-6.9277,6.5137-6.9277,4.7041,0,6.1777,3.7744,6.2295,7.2119v.4141ZM81.3193,16.2999c-.2061-2.3262-1.499-3.8516-3.877-3.8516-2.4033,0-3.9287,1.5508-4.2393,3.8516h8.1162Z"/>
  <path class="cls-1" d="M92.5635,10.7941v2.2227c-.1025,0-.5166.0264-.8525.0781-1.5508.2324-3.1279.9307-3.1279,4.8076v6.3066h-2.3262v-13.3633h2.3262v2.6885c.6719-1.9648,1.9648-2.7402,3.9805-2.7402Z"/>
  <path class="cls-1" d="M99.3105,12.5001c-1.2666,0-2.5332.7236-2.5332,1.8613,0,1.0332,1.0342,1.6279,2.1973,1.9121l1.7578.4395c2.0156.4912,4.0586,1.4482,4.0586,3.6709,0,2.8428-2.9727,4.1357-5.2998,4.1357-2.248,0-5.1953-1.0342-5.4277-4.3428h2.3262c.3105,1.7061,1.3701,2.3779,3.1797,2.3779,1.3184,0,2.8945-.4648,2.8945-2.0156,0-1.1377-1.1113-1.5254-2.3779-1.8359l-1.8613-.4648c-1.9902-.4912-3.7734-1.7061-3.7734-3.7734,0-2.5078,2.585-3.9297,4.9375-3.9297,2.6104,0,4.9111,1.3965,5.1689,4.3428h-2.2998c-.1553-1.7314-1.6025-2.3779-2.9473-2.3779Z"/>
  <path class="cls-1" d="M110.0127,12.1378v3.1025h-2.8438v-3.1025h2.8438ZM110.0127,21.1075v3.1016h-2.8438v-3.1016h2.8438Z"/>
</svg>