<?xml version="1.0" encoding="UTF-8"?>
<svg id="Layer_1" data-name="Layer 1" xmlns="http://www.w3.org/2000/svg" viewBox="0 0 148.0566 29.2154">
  <defs>
    <style>
      .cls-1 {
        fill: #9298a0;
      }
    </style>
  </defs>
  <path class="cls-1" d="M7.1338,22.5797c2.1709,0,4.0322-1.0088,4.0322-3.2568,0-2.2754-1.9131-2.6631-4.2393-3.3604-3.0498-.9053-6.1514-1.8096-6.2295-5.2988-.0771-3.5674,2.8691-5.3506,6.2041-5.3506,3.6963,0,6.126,1.8604,6.4102,5.5566h-2.4814c-.3359-2.3262-1.499-3.4893-3.9287-3.4893-2.042,0-3.748.8535-3.748,3.1016,0,1.8877,1.8096,2.6113,4.2393,3.3086,3.0752.8789,6.2295,1.5508,6.2295,5.4541,0,3.7744-3.1797,5.4023-6.4883,5.4023-4.0322,0-7.082-1.9385-7.1338-6.1514h2.4551c.1035,2.7656,1.9902,4.084,4.6787,4.084Z"/>
  <path class="cls-1" d="M16.3623,10.8443h2.3262v8.4268c0,2.3516,1.0088,3.2822,2.8174,3.2822,1.9648,0,3.6963-1.6543,3.6963-5.1436v-6.5654h2.3271v13.3633h-2.3271v-2.5068c-.6973,1.5244-1.9385,2.8174-4.0059,2.8174-3.5156,0-4.834-2.3008-4.834-5.0146v-8.6592Z"/>
  <path class="cls-1" d="M43.8916,17.4869c0,4.1357-2.3262,7.0312-6.1006,7.0312-2.4297,0-4.1094-1.6025-4.6006-2.9727h-.0264v7.832h-2.3262V10.8443h2.3262v2.7139h.0264c.4912-1.3955,2.1709-3.0244,4.6006-3.0244,3.7744,0,6.1006,2.8174,6.1006,6.9531ZM41.5654,17.4869c0-2.8945-1.5-4.9883-4.2393-4.9883-2.8955,0-4.2393,2.3779-4.2393,4.9883,0,2.6367,1.3438,5.041,4.2393,5.041,2.8174,0,4.2393-2.1455,4.2393-5.041Z"/>
  <path class="cls-1" d="M59.4268,17.4869c0,4.1357-2.3262,7.0312-6.1006,7.0312-2.4297,0-4.1094-1.6025-4.6006-2.9727h-.0264v7.832h-2.3262V10.8443h2.3262v2.7139h.0264c.4912-1.3955,2.1709-3.0244,4.6006-3.0244,3.7744,0,6.1006,2.8174,6.1006,6.9531ZM57.1006,17.4869c0-2.8945-1.5-4.9883-4.2393-4.9883-2.8955,0-4.2393,2.3779-4.2393,4.9883,0,2.6367,1.3438,5.041,4.2393,5.041,2.8174,0,4.2393-2.1455,4.2393-5.041Z"/>
  <path class="cls-1" d="M61.0811,17.5386c0-3.9287,2.6367-7.0049,6.6943-7.0049s6.6953,3.0762,6.6953,7.0049-2.6367,6.9795-6.6953,6.9795-6.6943-3.0498-6.6943-6.9795ZM72.1445,17.5386c0-2.7656-1.7578-5.04-4.3691-5.04s-4.3682,2.2744-4.3682,5.04c0,2.7402,1.7578,5.0146,4.3682,5.0146s4.3691-2.2744,4.3691-5.0146Z"/>
  <path class="cls-1" d="M83.2588,10.7926v2.2227c-.1035,0-.5166.0264-.8525.0781-1.5508.2324-3.1279.9307-3.1279,4.8076v6.3066h-2.3262v-13.3633h2.3262v2.6885c.6719-1.9648,1.9648-2.7402,3.9805-2.7402Z"/>
  <path class="cls-1" d="M91.5049,22.2955v1.9121h-1.1631c-2.585,0-3.748-1.5244-3.748-3.5928v-7.8574h-1.9902v-1.9131h1.9902v-3.1279l2.2744-1.0342v4.1621h2.5586v1.9131h-2.5586v7.7021c0,1.1895.6719,1.8359,1.7061,1.8359h.9307Z"/>
  <path class="cls-1" d="M98.3545,12.4986c-1.2666,0-2.5332.7236-2.5332,1.8613,0,1.0332,1.0342,1.6279,2.1973,1.9121l1.7578.4395c2.0156.4912,4.0586,1.4482,4.0586,3.6709,0,2.8428-2.9727,4.1357-5.2998,4.1357-2.248,0-5.1953-1.0342-5.4277-4.3428h2.3262c.3105,1.7061,1.3701,2.3779,3.1797,2.3779,1.3184,0,2.8945-.4648,2.8945-2.0156,0-1.1377-1.1113-1.5254-2.3779-1.8359l-1.8613-.4648c-1.9902-.4912-3.7734-1.7061-3.7734-3.7734,0-2.5078,2.585-3.9297,4.9375-3.9297,2.6104,0,4.9111,1.3965,5.1689,4.3428h-2.2998c-.1553-1.7314-1.6025-2.3779-2.9473-2.3779Z"/>
  <path class="cls-1" d="M109.0566,12.1363v3.1025h-2.8438v-3.1025h2.8438ZM109.0566,21.106v3.1016h-2.8438v-3.1016h2.8438Z"/>
</svg>